<!DOCTYPE svg PUBLIC "-//W3C//DTD SVG 1.1//EN" "http://www.w3.org/Graphics/SVG/1.1/DTD/svg11.dtd">
<svg xmlns="http://www.w3.org/2000/svg" viewBox="0 0 2000 1500">
<path fill="#ffffff" stroke="#ffffff" d="M773.613 297.175A25971.93 25971.93 0 0 0 758.947 345l-11.163 36.5-3.415 61-3.416 61-30.5 92.23c-16.776 50.727-30.763 92.915-31.084 93.75-.5 1.303.991 1.52 10.457 1.52 9.643 0 11.107-.221 11.573-1.75.294-.962 11.817-40.225 25.607-87.25s25.324-86.33 25.631-87.345c.42-1.39 60.523-68.421 74.878-83.51l2.24-2.355 85.123 14.19L1000 457.169l85.122-14.189 85.123-14.19 2.25 2.355c13.334 13.952 74.451 82.132 74.869 83.521.303 1.009 11.172 38.059 24.152 82.334 12.981 44.275 24.494 83.538 25.585 87.25l1.984 6.75h11.064c9.252 0 10.974-.237 10.509-1.449-.306-.797-14.266-42.815-31.023-93.374l-30.468-91.924-3.501-61.377-3.502-61.376-14.181-46.5c-7.8-25.575-14.491-47.06-14.869-47.744-.459-.833-27.372 19.767-81.223 62.168l-80.535 63.412-30.733 2.775-30.733 2.774-30.643-2.802-30.642-2.803-79.553-62.56c-43.753-34.408-80.089-62.967-80.744-63.465-.869-.659-2.142 2.166-4.695 10.42M826 633.022c0 1.361 8.148 41.391 8.506 41.787.756.838 91.54 16.191 95.736 16.191h4.85l-28.296-29.495-28.296-29.494-26.25-.006c-17.213-.003-26.25.347-26.25 1.017m267.204 28.483L1064.908 691h5.014c4.062 0 70.502-11.036 90.691-15.065l5.114-1.02 4.137-20.708c2.275-11.389 4.137-21.044 4.137-21.457-.001-.413-11.813-.748-26.251-.745l-26.25.006-28.296 29.494m-261.685 49.662c-12.581 34.78-24.991 67.861-26.097 69.567-.796 1.229-2.567 2.515-3.935 2.859-1.368.343-2.487 1.25-2.487 2.015 0 1.096 2.124 1.392 10 1.392 9.333 0 10-.133 10-2 0-1.673-.667-2-4.083-2-2.88 0-3.929-.369-3.56-1.25.288-.687 1.707-4.896 3.155-9.351l2.631-8.102 13.595-.682c15.236-.765 14.365-1.088 17.185 6.385 3.075 8.148 2.816 11.847-.923 13.15-1.65.575-3 1.677-3 2.448 0 1.125 2.372 1.402 12 1.402 11.333 0 12-.111 12-2 0-1.609-.667-2-3.412-2-3.163 0-3.459-.274-4.052-3.75-.945-5.533-25.874-68.529-27.309-69.008-.674-.224-1.443.192-1.708.925m242.634 1.002c-.472 1.282-6.139 16.731-12.594 34.331-12.764 34.803-13.392 36.169-17.072 37.093-1.368.343-2.487 1.25-2.487 2.015 0 1.096 2.124 1.392 10 1.392 9.333 0 10-.133 10-2 0-1.673-.667-2-4.083-2-2.879 0-3.929-.369-3.561-1.25.288-.687 1.682-4.894 3.098-9.349l2.575-8.098 13.652-.685c15.298-.768 14.422-1.092 17.242 6.382 3.075 8.148 2.816 11.847-.923 13.15-1.65.575-3 1.677-3 2.448 0 1.125 2.372 1.402 12 1.402 11.333 0 12-.111 12-2 0-1.609-.667-2-3.412-2-3.162 0-3.46-.275-4.057-3.75-.95-5.523-25.881-68.533-27.304-69.008-.668-.222-1.601.645-2.074 1.927m128.324 33.067c-11.99 32.557-13.221 35.389-16.188 37.25-5.695 3.571-4.294 4.514 6.711 4.514 9.333 0 10-.133 10-2 0-1.667-.667-2-4-2-2.2 0-4-.336-4-.747 0-1.286 5.216-16.721 5.874-17.381.344-.345 6.76-.929 14.257-1.298l13.631-.671 2.765 7.581c3.12 8.554 2.604 11.943-1.993 13.097-1.394.35-2.534 1.262-2.534 2.027 0 1.115 2.488 1.392 12.5 1.392 11.833 0 12.5-.107 12.5-2 0-1.655-.667-2-3.868-2-3.717 0-3.889-.148-4.373-3.762-.71-5.294-25.813-69.238-27.181-69.238-.619 0-6.964 15.856-14.101 35.236m347 0c-11.99 32.557-13.221 35.389-16.188 37.25-5.695 3.571-4.294 4.514 6.711 4.514 9.333 0 10-.133 10-2 0-1.667-.667-2-4-2-2.2 0-4-.336-4-.747 0-1.286 5.216-16.721 5.874-17.381.344-.345 6.76-.929 14.257-1.298l13.631-.671 2.765 7.581c3.12 8.554 2.604 11.943-1.993 13.097-1.394.35-2.534 1.262-2.534 2.027 0 1.115 2.488 1.392 12.5 1.392 11.833 0 12.5-.107 12.5-2 0-1.655-.667-2-3.868-2-3.717 0-3.889-.148-4.373-3.762-.71-5.294-25.813-69.238-27.181-69.238-.619 0-6.964 15.856-14.101 35.236M537 711.881c-5.309 1.735-11.249 5.368-15.14 9.259-14.17 14.17-14.39 42.939-.438 57.125 13.926 14.159 40.092 13.822 53.418-.689 17.843-19.43 12.446-52.596-10.34-63.542-5.355-2.572-22.184-3.89-27.5-2.153m358.797.855c-27.615 10.36-32.742 53.008-8.385 69.739 14.02 9.629 33.871 7.847 46.215-4.15 3.643-3.541 4.312-4.694 3.376-5.822-.972-1.171-1.742-.831-4.612 2.039-7.681 7.682-21.188 10.717-31.006 6.967-30.069-11.483-23.551-66.368 7.897-66.487 11.749-.045 19.714 6.322 22.175 17.728.392 1.812 1.33 3.25 2.122 3.25 1.152 0 1.421-2.366 1.421-12.5V711h-2.5c-2.081 0-2.5.477-2.5 2.847v2.847l-5.192-2.569c-6.884-3.407-21.737-4.119-29.011-1.389m243.208-.124c-15.367 5.568-23.964 19.421-23.993 38.663-.043 28.203 26.687 45.613 51.797 33.738 7.528-3.561 14.854-10.51 13.191-12.513-.927-1.116-1.87-.654-5.143 2.523-10.398 10.091-29.132 10.649-39.22 1.168-10.269-9.651-13.574-28.184-7.733-43.365 8.785-22.835 39.239-24.341 45.658-2.259 2.848 9.796 4.438 7.264 4.438-7.067V711h-2.5c-2.081 0-2.5.477-2.5 2.847v2.847l-5.192-2.569c-6.693-3.312-21.665-4.099-28.803-1.513M401 714.5c0 2.146.46 2.505 3.25 2.538l3.25.037 11.569 35.212c8.248 25.103 12.025 35.3 13.155 35.518 1.251.241 3.558-5.622 10.918-27.75 5.132-15.43 9.562-28.049 9.845-28.043.282.007 4.842 12.495 10.132 27.75 7.885 22.737 9.95 27.738 11.453 27.738 1.515 0 3.76-5.67 12.891-32.56 12.03-35.423 12.974-37.478 17.792-38.726 1.785-.463 3.245-1.488 3.245-2.278 0-1.141-2.204-1.494-10.75-1.72l-10.75-.284v2.662c0 2.545.175 2.634 4 2.022 2.2-.352 4-.461 4-.242 0 1.019-17.736 53.695-18.253 54.212-.324.324-4.979-12.726-10.344-28.999-7.318-22.19-10.15-29.582-11.33-29.567-1.177.015-3.794 7.004-10.39 27.75a19893.97 19893.97 0 0 1-9.273 29.123c-.743 2.266-1.121 1.351-8.472-20.49-9.511-28.26-9.814-32.403-2.367-32.403 1.762 0 2.429-.549 2.429-2 0-1.897-.667-2-13-2h-13v2.5m195 .014c0 2.405.234 2.533 3.514 1.917l3.514-.659-.264 32.344-.264 32.343-3.211 2.021c-6.683 4.204-5.059 4.52 23.211 4.52H649v-11c0-8.624-.295-11-1.364-11-.862 0-1.595 1.686-1.992 4.582-1.499 10.933-5.581 13.418-22.045 13.418H612l.015-30.75c.016-32.993.312-35.147 4.993-36.252 1.371-.323 2.492-1.243 2.492-2.043 0-1.175-2.263-1.509-11.75-1.737l-11.75-.281v2.577m62 .031c0 2.37.243 2.5 3.514 1.886l3.514-.659-.264 32.344-.264 32.343-3.211 2.021c-6.046 3.803-4.425 4.52 10.211 4.52 12.833 0 13.5-.099 13.5-2 0-1.758-.667-2-5.5-2H674v-30.742l5.01-.665c8.202-1.088 12.713.664 13.998 5.437.627 2.328 1.674 3.97 2.531 3.97 1.193 0 1.461-2.018 1.461-11 0-10.915-.018-11-2.377-11-2.226 0-2.345.286-1.87 4.5l.507 4.5h-19.411l.325-13.898c.43-18.356.47-18.407 14.038-17.938 11.506.397 14.262 2.142 15.58 9.866.546 3.199 1.289 4.554 2.636 4.814 1.706.329 1.817-.12 1.232-4.992-.353-2.943-.647-7.265-.651-9.602L707 712h-49v2.545m87 0c0 2.368.245 2.5 3.5 1.889l3.5-.657v63.314l-2.455 2.454c-1.35 1.35-2.925 2.455-3.5 2.455-.575 0-1.045.675-1.045 1.5 0 1.256 2.111 1.5 13 1.5 12.333 0 13-.103 13-2 0-1.733-.667-2-5-2h-5v-24l4.25-.008c23.042-.041 37.687-11.89 35.2-28.478-2.044-13.629-12.879-18.497-41.2-18.508L745 712v2.545m203 0c0 2.368.245 2.5 3.5 1.889l3.5-.657v63.314l-2.455 2.454c-1.35 1.35-2.925 2.455-3.5 2.455-.575 0-1.045.675-1.045 1.5 0 1.246 1.944 1.5 11.5 1.5 10.833 0 11.5-.116 11.5-2 0-1.619-.667-2-3.5-2H964V750.879l3.745.311c3.557.294 4.334 1.088 15.487 15.81 15.229 20.102 15.108 20 23.824 20 7.438 0 9.956-2.18 4.023-3.483-3.656-.803-9.05-6.552-20.948-22.328-5.106-6.771-9.925-12.556-10.708-12.857-2.195-.842-1.873-1.651 5.012-12.599 8.383-13.33 12.797-17.621 19.735-19.184 9.568-2.155 7.038-4.006-5.92-4.332-10.736-.27-11.25-.19-11.25 1.75 0 1.619.65 2.033 3.187 2.033h3.187l-2.595 2.75c-1.427 1.513-6.179 8.375-10.561 15.25-7.93 12.442-7.986 12.501-12.092 12.807l-4.126.308V733.78c0-14.251 1.004-17.78 5.057-17.78 1.276 0 1.943-.686 1.943-2 0-1.884-.667-2-11.5-2H948v2.545m309 0c0 2.368.245 2.5 3.5 1.889l3.5-.657v63.314l-2.455 2.454c-1.35 1.35-2.925 2.455-3.5 2.455-.575 0-1.045.675-1.045 1.5 0 1.8 29.031 2.201 37.88.523 11.692-2.218 22.825-10.676 27.385-20.806 3.258-7.238 3.627-21.847.745-29.499-6.63-17.603-19.799-23.694-51.26-23.71L1257 712v2.545m78.38-1.093c-.975 2.541.587 3.645 4.198 2.967l3.422-.642v30.547c0 32.982-.302 35.209-5.01 36.986-1.644.621-2.99 1.712-2.99 2.425 0 1.037 5.548 1.243 27.75 1.031l27.75-.266.285-10.25c.236-8.492.032-10.25-1.189-10.25-.98 0-1.7 1.51-2.15 4.512-1.483 9.886-6.361 12.488-23.414 12.488H1352v-33h8.345c9.113 0 10.848.89 12.185 6.25.378 1.513 1.313 2.75 2.078 2.75 1.105 0 1.392-2.27 1.392-11 0-10.333-.121-11-2-11-1.704 0-2 .667-2 4.5v4.5h-20v-13c0-16.893.085-17 13.55-17 13.429 0 18.45 3.393 18.45 12.468 0 1.584.562 2.532 1.5 2.532 1.228 0 1.5-1.722 1.5-9.5V712h-25.531c-21.398 0-25.622.235-26.089 1.452m67.62.945c0 2.255.303 2.428 3.373 1.93 1.855-.301 3.592-.16 3.859.313.268.473-.121 14.77-.864 31.771-1.43 32.735-1.584 33.571-6.5 35.131-1.027.326-1.868 1.237-1.868 2.025 0 1.148 1.987 1.433 10 1.433 9.333 0 10-.133 10-2 0-1.661-.667-2-3.929-2h-3.929l.459-18.75c.252-10.312.716-23.403 1.031-29.09l.573-10.34 3.78 9.34c2.079 5.137 7.252 17.215 11.497 26.84 4.244 9.625 8.632 19.638 9.751 22.25 3.627 8.47 4.166 7.679 17.807-26.147 7.695-19.081 12.694-30.267 13.072-29.25.336.906 1.193 12.533 1.904 25.837 1.401 26.23 1.141 28.173-3.989 29.802-1.115.353-2.027 1.287-2.027 2.075 0 1.164 2.251 1.433 12 1.433 11.333 0 12-.111 12-2 0-1.654-.667-2-3.856-2h-3.856l-.614-7.75c-3.676-46.475-3.17-59.25 2.349-59.25 1.324 0 1.977-.675 1.977-2.042 0-1.904-.519-2.022-7.665-1.75l-7.664.292-5.433 13c-2.988 7.15-8.724 21.088-12.746 30.973l-7.312 17.972-1.61-3.472c-.885-1.91-6.945-15.848-13.467-30.973l-11.857-27.5-8.123-.29c-8.056-.289-8.123-.271-8.123 2.187m98 .148c0 2.368.245 2.5 3.5 1.889l3.5-.657v63.314l-2.455 2.454c-1.35 1.35-2.925 2.455-3.5 2.455-.575 0-1.045.675-1.045 1.5 0 1.246 1.944 1.5 11.5 1.5 10.833 0 11.5-.116 11.5-2 0-1.619-.667-2-3.5-2h-3.5v-31.277c0-33.454.321-35.723 5.057-35.723 1.276 0 1.943-.686 1.943-2 0-1.884-.667-2-11.5-2H1501v2.545m-964.133 2.463c-30.168 15.941-13.634 75.968 18.346 66.608 24.98-7.311 26.712-54.792 2.427-66.548-5.652-2.736-15.654-2.765-20.773-.06m226.26.865c-2.008 2.008-2.127 3.11-2.127 19.759v17.631l7.25-.473c18.464-1.206 28.28-17.368 19.078-31.413-4.018-6.132-19.95-9.755-24.201-5.504m512.007-.007c-2.089 2.089-2.134 2.807-2.134 33.747v31.614l10.25-.418c11.582-.472 16.035-2.161 22.354-8.479 12.329-12.33 12.408-38.859.149-49.934-8.295-7.494-25.901-11.248-30.619-6.53M830.609 727c-3.11 7.477-11.326 31.648-10.96 32.241.609.986 23.101.994 23.656.009.316-.561-8.286-24.739-11.652-32.75-.231-.55-.701-.325-1.044.5m243 0c-3.11 7.477-11.326 31.648-10.96 32.241.609.986 23.101.994 23.656.009.316-.561-8.286-24.739-11.652-32.75-.231-.55-.701-.325-1.044.5m140.391-.852c0 .302-2.475 7.476-5.5 15.942-3.025 8.467-5.5 15.96-5.5 16.652 0 1.397 23.988 1.905 24.013.508.024-1.333-11.273-31.718-12.157-32.7-.471-.522-.856-.703-.856-.402m347 0c0 .302-2.475 7.476-5.5 15.942-3.025 8.467-5.5 15.96-5.5 16.652 0 1.397 23.988 1.905 24.013.508.024-1.333-11.273-31.718-12.157-32.7-.471-.522-.856-.703-.856-.402M633.179 828.956l-6.994 20.956 186.577 181.571c102.617 99.864 186.892 181.446 187.278 181.294.386-.152 84.646-81.852 187.244-181.555l186.542-181.277-6.999-20.973-6.999-20.972h-12.914c-7.103 0-12.914.385-12.914.856s2.276 8.636 5.057 18.143c2.782 9.508 4.694 17.604 4.25 17.991-.444.388-77.897 67.181-172.117 148.43-150.798 130.036-171.508 147.566-172.958 146.402-.907-.727-78.167-67.42-171.69-148.206a1711398.913 1711398.913 0 0 0-170.356-147.147c-.172-.145 1.965-8.04 4.75-17.546 2.785-9.505 5.064-17.651 5.064-18.103 0-.451-5.811-.82-12.914-.82h-12.914l-6.993 20.956m96.354-19.706c-.766 2.37-2.534 18.082-2.085 18.531.247.248 14.862-3.877 32.477-9.166 17.615-5.288 32.494-9.615 33.066-9.615.572 0 15.038 11.138 32.147 24.75l31.107 24.75 13.789 40.158 13.788 40.158 12.518 18.342 12.518 18.342 12.689 5c6.979 2.75 12.856 5.45 13.061 6 .205.55 1.255 7.068 2.334 14.484 1.11 7.63 2.461 13.65 3.111 13.867.632.211 6.616 3.085 13.298 6.388s19.891 9.734 29.352 14.291l17.204 8.287 29.796-14.4c16.389-7.92 30.156-14.523 30.595-14.674.439-.151 1.683-6.343 2.765-13.759 1.081-7.416 2.089-13.87 2.238-14.343.149-.472 6.088-3.244 13.197-6.159l12.926-5.301 12.538-18.515 12.538-18.515 13.5-39.677 13.5-39.677 31.242-24.899c17.183-13.694 31.729-24.898 32.326-24.898.596 0 15.494 4.305 33.107 9.568 17.613 5.262 32.217 9.373 32.454 9.136.402-.402-1.099-12.39-2.185-17.454l-.482-2.25h-96.172l-16.099 14.75c-8.854 8.112-18.702 17.225-21.884 20.25l-5.786 5.5-12.22 41.5-12.219 41.5-11.15 17.061-11.149 17.062-11.255 4.688-11.256 4.689h-15.386c-8.462 0-15.386-.21-15.386-.466 0-.257 8.775-11.758 19.5-25.559 10.725-13.801 19.507-25.854 19.516-26.784.008-.93.87-9.116 1.915-18.191l1.9-16.5-8.313-29.5c-4.572-16.225-9.371-34.111-10.665-39.747l-2.353-10.246-8.25-.004c-5.957-.002-8.238.344-8.208 1.247.314 9.425 5.464 25.152 16.898 51.602 6.74 15.594 11.874 28.717 11.408 29.163-1.161 1.109-61.212 19.985-63.579 19.985-2.358 0-61.94-18.899-63.144-20.029-.488-.458 4.511-13.306 11.315-29.077 11.113-25.761 17.06-44.072 17.06-52.532 0-.199-3.734-.362-8.299-.362h-8.299l-2.3 10.2c-1.265 5.61-6.042 23.497-10.615 39.75l-8.315 29.55 2.072 18.443 2.073 18.444 19.341 24.816C961.296 962.852 970 974.24 970 974.51c0 .269-6.862.493-15.25.498l-15.25.008-11.402-4.713-11.402-4.713-11.137-17.045-11.136-17.045L882.19 890l-12.232-41.5-5.775-5.5c-3.177-3.025-13.02-12.138-21.874-20.25L826.21 808h-48.136c-37.627 0-48.225.273-48.541 1.25m245.489 170.865c-12.912 2.717-23.848 5.311-24.301 5.764-.453.453-.463 5.926-.022 12.163l.801 11.339 24.267 8.781 24.267 8.782 24.233-8.753 24.233-8.753.801-11.368c.441-6.252.433-11.736-.016-12.185-.731-.731-48.444-11.012-50.106-10.797-.374.048-11.244 2.311-24.157 5.027" fill-rule="evenodd"/>

</svg>