<!DOCTYPE svg PUBLIC "-//W3C//DTD SVG 1.1//EN" "http://www.w3.org/Graphics/SVG/1.1/DTD/svg11.dtd">
<svg xmlns="http://www.w3.org/2000/svg" viewBox="0 0 690 372">
<path fill="#eceded" stroke="#eceded" d="M322.5 104.954c-11.919 4.93-13.376 31.355-2.177 39.494 3.906 2.839 12.456 2.835 16.354-.007 10.326-7.529 9.97-31.175-.575-38.183-3.51-2.333-9.684-2.925-13.602-1.304m-45.5 1.6c0 1.327 3.783 26.078 5.541 36.253.538 3.114.786 3.289 4.248 3l3.677-.307 1.471-7.5 1.472-7.5 1.364 6.5c1.929 9.196 1.805 9 5.677 9 4.125 0 3.52 1.854 7.018-21.5 3.151-21.032 3.218-19.5-.86-19.5-3.945 0-3.856-.226-5.729 14.416-.697 5.454-1.377 9.504-1.51 9-.133-.504-.753-3.504-1.377-6.666-1.113-5.644-1.196-5.75-4.518-5.75-3.129 0-3.432.282-4.027 3.75-1.723 10.043-2.033 9.971-3.337-.768-1.727-14.229-1.626-13.982-5.677-13.982-2.438 0-3.433.451-3.433 1.554m73 18.946V146h27v-6h-20v-35h-7v20.5m35 0V146h7v-18h15v-6h-15v-11h20v-6h-27v20.5m-169.413-11.299-15.914 5.105-13.086-1.8c-10.133-1.394-15.734-1.632-24.811-1.056l-11.724.744-3.017 4.903-3.017 4.903h-24.009C98.912 127 96 127.189 96 128.562c0 2.352 5.102 19.764 6.19 21.124.521.652 2.203 1.461 3.738 1.798 1.988.437 3.538 1.962 5.4 5.314l2.612 4.702 1.249-3.25c1.436-3.735 2.137-3.841 11.293-1.718 9.621 2.231 16.477 5.648 21.018 10.475l4 4.251-3-.711c-1.65-.391-8.85-1.569-16-2.618-8.67-1.271-13.37-2.409-14.11-3.417-1.689-2.299-2.39-1.829-2.39 1.603 0 2.315-.95 3.986-3.699 6.504l-3.7 3.388 3.944 4.039c2.169 2.221 5.071 4.308 6.449 4.638 1.378.33 4.176 1.436 6.216 2.458 4.493 2.25 5.79 2.33 5.79.358 0-1.956.351-1.924 7.919.734 4.796 1.685 6.523 1.94 6.833 1.01.806-2.418 2.231-1.081 16.248 15.256 7.787 9.075 14.314 16.5 14.505 16.5.192 0 1.769-2.483 3.505-5.517l3.156-5.517 8.01 9.767c4.406 5.372 8.306 9.872 8.667 10 .361.127 2.635-3.339 5.053-7.703l4.395-7.936 3.225 2.703c1.774 1.487 6.669 5.805 10.878 9.596 4.209 3.792 7.907 6.639 8.219 6.328.311-.311.816-4.215 1.121-8.674.306-4.46.902-8.322 1.324-8.583.423-.261 7.84 2.47 16.484 6.069 8.643 3.599 15.884 6.375 16.09 6.168.207-.207-4.773-6.862-11.066-14.788L244.123 198.5l10.439-.284c5.741-.156 10.438-.62 10.438-1.03 0-.411-4.952-5.386-11.004-11.055-6.053-5.669-10.784-10.665-10.514-11.101.269-.437 3.421-1.108 7.004-1.492 3.583-.383 6.514-1.07 6.514-1.526 0-.456-5.868-6.608-13.04-13.671L230.919 145.5l-9.671-3.25c-5.319-1.787-10.589-3.264-11.71-3.28-2.028-.031-2.029-.036-.038-1.16 6.824-3.853 15.818-13.486 19.584-20.978 2.166-4.308 3.596-7.81 3.177-7.783-.418.026-7.922 2.345-16.674 5.152m107.382-.668c-3.741 3.981-4.196 17.4-.762 22.467 3.198 4.718 8.93 5.036 12.185.677 3.071-4.114 3.077-18.228.009-22.354-2.974-3.998-8.086-4.352-11.432-.79m32.929 38.73c-7.6 5.062-10.333 22.632-5.068 32.571 5.837 11.018 21.077 10.293 26.244-1.248 1.814-4.051 1.812-4.077-.376-5.293-3.105-1.726-3.307-1.65-4.73 1.784-2.682 6.475-10.435 7.891-14.352 2.622-2.934-3.946-3.458-15.767-.918-20.698 3.941-7.652 11.496-7.25 14.271.759 1.254 3.618 1.877 4.24 4.25 4.24H378v-16h-3c-2.062 0-3 .492-3 1.573 0 1.303-.451 1.218-2.635-.5-3.523-2.771-9.14-2.692-13.467.19M280 171.412V192H286.919l.291-8.25.29-8.25 7-.565c8.518-.689 10.157-1.37 12.037-5.007 2.528-4.888 1.903-11.403-1.453-15.162l-2.916-3.266-11.084-.338-11.084-.339v20.589m38.549-1.662c-3.205 10.313-6.043 19.537-6.305 20.5-.389 1.427.176 1.75 3.059 1.75 3.355 0 3.621-.256 5.197-5l1.661-5h12.778l1.38 4.75c1.302 4.486 1.589 4.768 5.163 5.068 2.793.235 3.664-.027 3.325-1-.253-.725-3.111-9.98-6.353-20.568L332.561 151h-8.183l-5.829 18.75M385 171.5V192h6.922l.289-8.669c.378-11.334 1.524-11.46 7.33-.808 5.038 9.243 5.644 9.791 10.283 9.297l3.014-.32-6.917-11.5c-3.805-6.325-6.914-11.725-6.91-12 .004-.275 2.913-3.875 6.465-8 7.631-8.862 7.67-9 2.567-9-3.704 0-4.328.459-9.75 7.178l-5.793 7.177-.294-7.177-.294-7.178H385v20.5m-98-8.5v6h5.429c6.245 0 8.571-1.632 8.571-6.015 0-3.881-3.242-5.985-9.223-5.985H287v6m39.664 3.585c-.993 3.253-2.029 6.702-2.302 7.665-.422 1.486.201 1.75 4.138 1.75 3.954 0 4.555-.257 4.091-1.75-.299-.963-1.348-4.412-2.332-7.665l-1.79-5.916-1.805 5.916M323 196.704c-9.041 3.289-13.109 22.398-7.216 33.893 6.012 11.727 22.458 10.511 27.19-2.01 1.171-3.1.72-4.004-2.474-4.962-1.568-.47-2.432.204-4 3.118-3.352 6.23-10.417 6.99-14.127 1.519-1.453-2.142-1.873-4.597-1.873-10.939 0-10.092 1.985-13.636 7.919-14.138 4.554-.384 6.226.898 7.735 5.934.996 3.325 1.57 3.881 4.004 3.881H343v-16h-3c-1.65 0-3 .462-3 1.026 0 .588-1.259.374-2.95-.5-2.906-1.503-8.114-1.89-11.05-.822m-39.829 20.223c-7.296 23.559-7.025 21.265-2.465 20.883 3.467-.29 3.801-.617 5.176-5.06l1.469-4.75h12.588l1.38 4.75c1.29 4.444 1.614 4.77 5.03 5.06 4.543.387 4.742 2.14-2.349-20.727-3.3-10.642-6-19.514-6-19.716 0-.202-1.948-.367-4.329-.367h-4.329l-6.171 19.927m74.965-16.677c-.561 1.787-3.296 10.474-6.078 19.304-6.021 19.111-5.962 18.446-1.638 18.446 3.219 0 3.517-.295 5.095-5.045l1.676-5.045 6.13.295 6.13.295 1.652 4.5c1.515 4.127 1.963 4.526 5.409 4.818 3.222.273 3.687.06 3.262-1.5-.272-1-3.118-10.255-6.323-20.568L367.622 197h-4.233c-3.901 0-4.314.256-5.253 3.25M385 217.5V238h8.435c15.466 0 20.671-5.151 20.732-20.519.06-15.331-4.94-20.471-19.917-20.477L385 197v20.5m35 .029v20.529l13.25-.279 13.25-.279v-6l-9.75-.286-9.75-.286V220h15v-6h-15v-10.928l9.75-.286 9.75-.286.316-2.75.317-2.75H420v20.529m35-.086V238h7l.079-11.75c.043-6.463.244-11.3.446-10.75.202.55.859 2.912 1.46 5.25.972 3.781 1.414 4.25 4.015 4.25s3.043-.469 4.015-4.25c.601-2.338 1.258-4.7 1.46-5.25.202-.55.403 4.287.446 10.75L474 238h7V196.885l-4.189.308-4.188.307-1.962 7.25c-1.079 3.988-2.276 7.25-2.661 7.25-.385 0-1.582-3.262-2.661-7.25l-1.962-7.25-4.188-.307-4.189-.308v20.558M493 200c0 2.667.333 3 3 3h3v28h-3c-2.762 0-3 .278-3 3.5v3.5h20v-3.5c0-3.222-.238-3.5-3-3.5h-3v-28h3c2.667 0 3-.333 3-3v-3h-20v3m34.612 16.258c-3.239 10.583-6.099 19.805-6.357 20.492-.325.865.718 1.248 3.388 1.245 3.722-.005 3.91-.172 5.357-4.75l1.5-4.745h12.79l1.385 4.75c1.321 4.529 1.553 4.75 4.98 4.75 4.445 0 4.535.655-3.21-23.539L541.856 197l-4.178.008-4.178.008-5.888 19.242M392 217v14h4.929c7.445 0 10.071-3.545 10.071-13.597 0-10.164-3.218-14.403-10.934-14.403H392v14m-100.201-4.259c-.936 3.212-1.996 6.61-2.357 7.55-.561 1.462.02 1.709 4.018 1.709 3.993 0 4.595-.255 4.131-1.75-.299-.963-1.342-4.36-2.317-7.55l-1.774-5.8-1.701 5.841m69.354 1.661c-2.523 7.982-2.579 7.82 2.567 7.411l3.928-.313-2.157-7-2.157-7-2.181 6.902m174.121.59L533.23 222h4.385c5.028 0 4.919.306 2.571-7.216-2.43-7.783-2.582-7.777-4.912.208" fill-rule="evenodd"/>
<path fill="#fbfbfb" stroke="#fbfbfb" d="M323.001 105.07c-12.398 5.209-13.801 32.466-2.026 39.347 7.112 4.155 16.405 1.546 20.258-5.688 3.034-5.696 3.254-20.241.393-25.999-3.397-6.839-12.081-10.41-18.625-7.66m-45.525 3.18c.996 5.72 5.524 35.928 5.524 36.856 0 .492 1.545.894 3.433.894 3.821 0 3.77.09 5.685-9.976 1.363-7.168 1.718-6.781 3.89 4.226 1.116 5.662 1.187 5.75 4.563 5.75 1.886 0 3.436-.338 3.444-.75.008-.412 1.352-9.3 2.985-19.75 1.633-10.45 2.977-19.338 2.985-19.75.008-.412-1.514-.75-3.382-.75h-3.396l-1.221 8.75c-.671 4.813-1.531 10.55-1.911 12.75l-.692 4-1.305-6.75c-1.298-6.719-1.32-6.75-4.63-6.75-3.202 0-3.351.176-4.025 4.75-1.191 8.083-2.024 9.194-2.761 3.681-.362-2.712-1.161-8.418-1.776-12.681L283.77 105h-3.43c-3.32 0-3.412.105-2.864 3.25M350 125.5V146h26v-6h-19v-35h-7v20.5m35 0V146h7v-18h15v-6h-15v-11h19v-6h-26v20.5m-171-10.52-14.5 4.781-12.5-1.904c-8.617-1.312-15.14-1.73-21-1.347-15.526 1.016-15.781 1.104-19.156 6.59l-3.016 4.9h-23.981c-22.359 0-23.949.118-23.494 1.75.269.963.72 2.65 1.003 3.75 3.685 14.321 4.629 16.34 8.184 17.513 2.394.79 4.2 2.386 5.728 5.063 2.685 4.702 3.369 4.852 4.232.924.362-1.65.82-3 1.017-3 7.554 0 24.368 6.623 29.952 11.799 6.348 5.883 6.467 6.215 1.833 5.096-2.091-.505-9.635-1.761-16.763-2.79-7.129-1.03-13.129-2.375-13.334-2.989-.731-2.193-2.205-1.065-2.205 1.688 0 1.885-1.133 3.902-3.456 6.153l-3.456 3.35 4.206 3.805c2.313 2.093 4.783 3.824 5.489 3.847.706.023 3.498 1.163 6.204 2.535 4.531 2.296 4.996 2.358 5.875.788.894-1.597 1.326-1.581 6.796.241 8.377 2.79 8.342 2.786 8.342.967 0-2.806 1.342-1.506 15.509 15.01 7.547 8.8 14.054 16.36 14.458 16.801.404.44 2.039-1.696 3.634-4.748 1.594-3.051 3.181-5.549 3.526-5.551.345-.001 4.101 4.273 8.347 9.498 4.246 5.225 8.037 9.5 8.424 9.5.387 0 2.624-3.375 4.971-7.5s4.502-7.5 4.789-7.5c.287 0 5.319 4.387 11.182 9.75l10.66 9.75.884-9.5c.486-5.225.966-9.605 1.066-9.732.1-.128 7.547 2.901 16.55 6.732 9.003 3.831 16.465 6.86 16.582 6.732.118-.127-4.988-6.757-11.346-14.732l-11.559-14.5 10.86-.286 10.86-.286-11.805-11.836-11.806-11.836 6.389-.684c9.953-1.066 9.985-.946-3.953-14.825L231.5 146.078l-10.208-3.539c-5.615-1.946-11.19-3.539-12.39-3.539-1.826 0-1.566-.417 1.597-2.564 10.675-7.244 15.664-13.253 21.326-25.686.674-1.479-3.548-.477-17.825 4.23m110.75-3.9c-7.838 4.565-6.489 27.8 1.67 28.748 7.728.899 10.787-3.118 10.854-14.252.073-12.005-5.576-18.543-12.524-14.496M281 171.327v20.327l3-.441 3-.44V175h5.532c12.569 0 18.597-7.604 13.891-17.521-2.165-4.562-7.327-6.479-17.443-6.479H281v20.327m39.474-5.577c-2.529 8.113-5.245 16.743-6.036 19.178-1.919 5.91-1.881 6.072 1.432 6.072 2.548 0 3.011-.505 4.13-4.5l1.26-4.5h14.503l1.133 4.5c1.026 4.075 1.414 4.5 4.118 4.5 3.438 0 3.475-.146 1.539-6.072-.795-2.435-3.519-11.065-6.052-19.178L331.895 151h-6.823l-4.598 14.75m34.122-11.7c-8.778 7.707-7.785 30.206 1.586 35.92 5.187 3.162 11.916 2.76 16.16-.965 4.353-3.823 6.605-8.792 4.568-10.082-2.41-1.526-3.344-1.041-5.41 2.81-7.071 13.177-19.637 1.276-16.51-15.637 2.215-11.984 14.433-14.231 16.666-3.065.493 2.466 1.081 2.969 3.469 2.969H378v-15h-3c-2.333 0-3 .444-3 2v2l-2-2c-3.307-3.307-11.042-2.78-15.404 1.05m31.071-2.383c-.367.366-.667 9.366-.667 20V191h6l.032-7.25c.022-5.014.514-7.867 1.594-9.25 1.808-2.314 1.215-2.965 7.972 8.75 4.191 7.266 4.682 7.75 7.864 7.75h3.393l-6.875-11.675-6.874-11.676 5.14-6.074c2.826-3.341 6.031-7.087 7.121-8.325l1.982-2.25h-3.938c-3.711 0-4.275.431-9.812 7.5-3.231 4.125-6.263 7.5-6.737 7.5-.474 0-.862-3.375-.862-7.5 0-7.19-.096-7.5-2.333-7.5-1.284 0-2.634.3-3 .667M287 163.5v6.5l4.25-.015c8.303-.029 12.874-5.094 9.393-10.408-1.503-2.294-2.346-2.577-7.666-2.577H287v6.5m38.74 4.162c-1.33 4.311-2.239 8.176-2.02 8.588.454.856 8.663 1.033 9.491.206.524-.524-3.655-15.234-4.594-16.173-.253-.252-1.547 3.069-2.877 7.379M322 197.791c-10.276 5.602-12.067 27.377-2.997 36.447 7.3 7.3 19.444 4.506 23.464-5.399l1.485-3.66-2.976-1.038c-2.359-.822-2.976-.753-2.976.334 0 6.682-11.188 9.865-15.29 4.349-6.013-8.086-1.948-26.824 5.819-26.824 3.171 0 8.471 4.957 8.471 7.923 0 1.641.63 2.077 3 2.077h3v-15h-3c-2.125 0-3 .483-3 1.655 0 1.511-.168 1.503-1.922-.085-2.948-2.667-8.958-3.025-13.078-.779m-32.328-.041c-.245.412-3.029 9.075-6.186 19.25-3.158 10.175-5.957 19.063-6.22 19.75-.329.856.646 1.25 3.097 1.25 3.406 0 3.643-.227 4.962-4.75l1.385-4.75H300.433l1.342 4.75c1.277 4.522 1.511 4.75 4.89 4.75 2.413 0 3.405-.4 3.098-1.25-.248-.687-3.103-9.912-6.345-20.5L297.524 197h-3.703c-2.037 0-3.903.338-4.149.75m63.888 18.454c-3.249 10.613-6.103 19.859-6.341 20.546-.291.841.689 1.25 2.998 1.25 3.221 0 3.522-.292 4.903-4.75l1.472-4.75 6.609-.294 6.609-.293 1.676 5.043c1.577 4.749 1.875 5.044 5.094 5.044 1.881 0 3.404-.113 3.383-.25-.02-.137-2.869-9.25-6.33-20.25l-6.295-20-3.935-.296-3.935-.296-5.908 19.296m31.44 1.299v20.69l9.429-.346c14.086-.518 18.477-4.707 19.36-18.469.562-8.754-1.216-14.495-5.87-18.958-2.882-2.763-3.582-2.939-12.982-3.264l-9.937-.343v20.69m35-.003V238h26v-6h-19v-12h15v-6h-15v-11h19v-6h-26v20.5m35 0V238h6v-12c0-12.997.973-15.168 2.913-6.5 1.129 5.046 1.459 5.5 3.999 5.5s2.885-.474 4.178-5.75l1.41-5.75.5 12 .5 12 3.25.313 3.25.314V197h-3.929c-4.206 0-4.506.522-7.616 13.25-1.061 4.342-1.918 3.319-4.394-5.25l-2.311-8H455v20.5m38-17.5c0 2.766.275 3 3.527 3h3.528l-.278 14.25-.277 14.25-3.25.313c-2.858.276-3.25.668-3.25 3.25V238h20v-3c0-2.762-.278-3-3.5-3H506v-29h3.5c3.222 0 3.5-.238 3.5-3v-3h-20v3m35.545 14.401c-7.697 24.108-7.655 23.827-3.462 23.423 3.073-.296 3.477-.732 4.698-5.074l1.335-4.75h13.506l1.281 5c1.223 4.771 1.438 5 4.689 5 4.219 0 4.509 2.214-2.766-21.161L541.652 197h-7.55l-5.557 17.401M392 217.5V232h3.435c7.411 0 10.654-3.143 11.868-11.5 1.533-10.562-2.62-17.5-10.477-17.5H392v14.5m-100.395-5.455-2.338 8.205c-.425 1.486.196 1.75 4.116 1.75 5.381 0 5.235.563 2.332-8.955l-2.273-7.456-1.837 6.456m69.531 1.31c-2.779 8.921-2.855 8.645 2.383 8.645 5.115 0 5.093.158 1.458-10.5l-1.705-5-2.136 6.855m174.396-.185c-.96 3.424-1.971 6.811-2.246 7.527-.366.954.733 1.303 4.107 1.303 5.285 0 5.323-.113 2.793-8.216-2.415-7.734-2.647-7.764-4.654-.614" fill-rule="evenodd"/>
<path fill="#c1c1c1" stroke="#c1c1c1" d="M323.5 105.517c-2.2.799-4.094 1.46-4.208 1.468-.114.008-1.414 2.074-2.889 4.59-3.197 5.456-4.282 15.498-2.418 22.389 4.395 16.248 23.943 16.41 28.645.238 5.205-17.907-5.325-33.698-19.13-28.685m-46.046 1.733c.271 1.237 1.639 9.9 3.042 19.25 3.071 20.478 2.75 19.5 6.39 19.5 3.149 0 3.255-.25 5.686-13.459.872-4.734 1.498-3.498 3.398 6.709 1.2 6.446 1.384 6.75 4.084 6.75 3.71 0 3.373.98 6.364-18.5 1.436-9.35 2.872-18.269 3.191-19.82.553-2.688.424-2.806-2.742-2.5-3.717.358-3.387-.611-5.888 17.313-1.331 9.54-2.112 9.484-3.446-.243-.709-5.165-.776-5.25-4.127-5.25-2.711 0-3.406.398-3.406 1.951 0 1.073-.521 4.335-1.157 7.25-1.424 6.522-1.913 5.187-3.824-10.451L283.705 105h-3.372c-2.975 0-3.313.264-2.879 2.25m72.992-.969c-.271.704-.369 9.817-.219 20.25l.273 18.969 12.75.28 12.75.28V140h-19v-35h-3.031c-1.668 0-3.253.576-3.523 1.281m34.783 18.969.271 20.25 2.75.316 2.75.317V128h16v-6h-16v-11h20v-6h-26.041l.27 20.25m-170.666-10.184-14.937 4.863-13.168-1.935c-10.912-1.604-14.947-1.775-23.563-.998-5.717.515-10.919.952-11.559.97-.641.019-2.549 2.284-4.241 5.034l-3.077 5h-24.116c-18.881 0-24.012.271-23.638 1.25.263.688 1.708 5.586 3.211 10.885 2.565 9.044 2.925 9.69 5.861 10.532 1.832.526 4.092 2.334 5.456 4.365 2.543 3.787 4.199 4.886 4.223 2.801.085-7.371 24.403-.454 33.985 9.668 4.002 4.228 4.224 4.689 2 4.172-4.767-1.107-19.531-3.532-25.772-4.232-3.45-.388-6.519-1.102-6.819-1.589-.882-1.427-2.409.085-2.409 2.384 0 1.165-1.463 3.352-3.25 4.859l-3.25 2.741 3.953 4.082c2.174 2.245 4.874 4.084 6 4.086 1.126.002 3.52.902 5.321 2 3.894 2.374 6.226 2.56 6.226.496 0-1.913-.217-1.941 7.52.971l6.566 2.472.77-2.083c.67-1.811 2.695.154 15.49 15.028C169.441 212.3 176.268 220 176.516 220c.248 0 1.574-2.218 2.948-4.929 3.475-6.858 3.153-6.967 11.978 4.031 4.369 5.444 8.194 9.891 8.5 9.882.307-.009 2.54-3.594 4.962-7.967l4.403-7.952 7.967 7.218c4.381 3.969 9.424 8.435 11.206 9.924l3.24 2.707.692-9.176c.381-5.047.845-9.328 1.03-9.513.185-.185 7.301 2.613 15.814 6.219 8.512 3.606 15.771 6.556 16.131 6.556.36 0-4.532-6.525-10.87-14.5L242.992 198l8.754-.07c14.102-.114 14.088.017 1.359-12.108-6.108-5.818-11.105-10.826-11.105-11.128 0-.303 2.588-.869 5.75-1.258 10.37-1.277 10.503-.728-3.506-14.557L231.5 146.297l-10.752-3.715c-6.451-2.23-11.65-3.481-13-3.129-2.116.552-2.136.512-.336-.683 9.907-6.581 17.593-14.971 22.462-24.52 2.662-5.222 3.349-5.259-15.311.816m108.446-2.229c-3.573 3.573-4.774 10.432-3.18 18.163 2.714 13.167 14.483 13.45 17.189.413 3.228-15.548-5.484-27.101-14.009-18.576m.991 84.284c-7.045 2.801-10.328 9.28-10.326 20.379.002 13.04 5.575 20.493 15.326 20.493 6.951 0 14-5.955 14-11.827 0-1.312-4.311-2.73-4.71-1.549-3.095 9.164-12.936 10.864-16.72 2.89-1.977-4.167-2.064-15.389-.155-19.959 3.383-8.096 13.523-7.109 15.241 1.483.493 2.466 1.081 2.969 3.469 2.969H343v-15h-3c-1.897 0-3 .512-3 1.392 0 1.1-.78.995-3.711-.5-4.125-2.103-5.627-2.227-9.289-.771m-38.996 16.072c-2.814 8.969-5.542 17.612-6.06 19.206-1.52 4.669-1.193 5.601 1.964 5.601 2.651 0 3.02-.44 4.189-5l1.281-5h14.269l1.427 4.749c.926 3.085 2.06 4.867 3.234 5.085 4.714.874 4.626-.127-1.794-20.507l-6.247-19.827-3.572-.307-3.573-.306-5.118 16.306m74.447-14.926c-4.342 11.314-11.988 38.973-10.891 39.395 3.112 1.194 4.964-.244 6.378-4.953l1.438-4.789 7.033.29 7.033.29 1.029 3.5c1.466 4.986 2.326 6 5.088 6 2.947 0 3-.902.499-8.556-1.069-3.269-3.788-11.907-6.043-19.194L366.914 197h-3.488c-1.919 0-3.708.57-3.975 1.267m25.778 18.886.271 20.347 8.508-.017c14.523-.028 19.492-5.123 19.492-19.983 0-15.079-4.438-19.809-19.092-20.347l-9.45-.347.271 20.347m35 .097.271 20.25 12.75.28 12.75.28v-5.988l-9.75-.286-9.75-.286-.299-5.707-.298-5.707 7.798-.293c7.682-.289 7.804-.334 8.115-3.043l.317-2.75H426v-11h20v-6h-26.041l.27 20.25m34.771.25V238h6v-13.667c0-15.003.273-15.607 2.811-6.204 1.523 5.644 2.001 6.371 4.189 6.371s2.666-.727 4.189-6.371c2.539-9.407 2.811-8.801 2.811 6.271v13.733l2.75-.317 2.75-.316.271-20.25.27-20.25h-7.757L471 205.5c-1.256 4.675-2.606 8.5-3 8.5-.394 0-1.744-3.825-3-8.5l-2.284-8.5H455v20.5m38.184-17.75c.263 2.291.858 2.802 3.566 3.063l3.25.314V232h-3.566c-3.301 0-3.543.205-3.25 2.75l.316 2.75h19l.316-2.75c.293-2.545.051-2.75-3.25-2.75H506V203.127l3.25-.314c2.708-.261 3.303-.772 3.566-3.063l.317-2.75h-20.266l.317 2.75M534 197.417c0 .23-2.7 9.042-6 19.583-7.007 22.384-6.808 21-3.03 21 2.682 0 3.103-.46 4.351-4.75l1.382-4.75 6.961-.29 6.96-.29 1.482 4.79c1.343 4.343 1.793 4.82 4.823 5.113 2.435.236 3.214-.035 2.872-1-.257-.727-3.131-9.982-6.385-20.564l-5.916-19.242-3.75-.008c-2.062-.005-3.75.179-3.75.408M391.223 217.25l.277 14.25 4.556.297c9.414.613 14.282-8.837 10.873-21.112-1.653-5.955-4.007-7.685-10.456-7.685h-5.528l.278 14.25m-100.026-4.429c-2.951 9.163-2.947 9.179 2.303 9.179 2.707 0 4.5-.455 4.5-1.142 0-1.327-3.957-14.858-4.346-14.858-.143 0-1.249 3.069-2.457 6.821m69.633.679-2.495 8 4.44.309c5.87.409 5.848.471 3.01-8.515l-2.461-7.794-2.494 8m174.32.15c-2.596 8.824-2.696 8.56 3.104 8.159l4.47-.309-2.123-7.178c-2.803-9.474-2.859-9.481-5.451-.672" fill-rule="evenodd"/>
<path fill="#050505" stroke="#050505" d="M278 107.07c0 1.211.935 8.104 2.078 15.316A5035.725 5035.725 0 0 1 282.846 140c.632 4.127.947 4.525 3.798 4.804 3.099.303 3.113.282 4.376-6.5 2.37-12.732 2.658-12.575 5.523 3 .651 3.539.919 3.783 3.828 3.5l3.129-.304 2.695-17c3.466-21.86 3.477-22.5.372-22.5-2.878 0-3.061.511-4.584 12.738-2.058 16.532-2.827 16.792-5.195 1.762-.232-1.473-1.087-2-3.243-2-2.83 0-2.97.229-4.197 6.877-1.966 10.657-1.985 10.616-4.669-9.877-1.145-8.74-1.258-9.009-3.929-9.316-2.263-.261-2.75.073-2.75 1.886m44.355-1.078c-11.251 4.54-12.002 31.375-1.065 38.043 11.307 6.895 22.146-2.469 22.092-19.084-.049-15.078-9.508-23.607-21.027-18.959M351 125v20h25v-5h-20v-35h-5v20m35-.031V145h2.461c2.402 0 2.468-.206 2.75-8.629l.289-8.63 7.5-.12c7.301-.118 7.5-.187 7.5-2.621 0-2.428-.225-2.508-7.799-2.793l-7.798-.293.298-5.707.299-5.707 9.815-.287c9.486-.277 9.804-.361 9.5-2.5-.303-2.128-.783-2.224-12.565-2.494l-12.25-.281v20.031m-170.5-9.76-15 4.891-14-1.867c-11.529-1.538-15.962-1.7-25.117-.918l-11.117.949-2.843 4.868L144.58 128H96.247l3.052 10.578c2.934 10.17 3.19 10.634 6.626 12.018 2.224.895 4.393 2.85 5.739 5.172l2.165 3.732 1.061-2.75c1.188-3.081 1.82-3.195 9.311-1.675 11.131 2.259 18.069 5.618 23.841 11.544 5.323 5.465 5.384 5.591 2.458 5.103-1.65-.276-9.3-1.499-17-2.718-7.7-1.218-14.511-2.63-15.135-3.137-.778-.631-1.35-.047-1.819 1.856-.376 1.527-2.023 4.169-3.66 5.87l-2.975 3.094 4.047 3.656c2.226 2.012 4.739 3.657 5.585 3.657.845 0 3.4.951 5.678 2.113 3.925 2.002 4.208 2.021 5.427.354 1.219-1.667 1.611-1.641 7.496.505 5.956 2.172 6.264 2.191 7.533.455 1.208-1.652 1.431-1.669 2.573-.197.688.887 7.307 8.64 14.709 17.227l13.46 15.615 3.04-5.522c1.673-3.038 3.28-5.529 3.573-5.536.292-.008 4.021 4.261 8.286 9.486 4.265 5.225 8.099 9.5 8.52 9.5.42 0 2.698-3.399 5.061-7.553l4.297-7.552 2.853 2.302c1.569 1.267 6.458 5.598 10.865 9.625 9.047 8.269 8.532 8.469 9.438-3.651.26-3.481.733-6.59 1.052-6.908.319-.319 7.543 2.359 16.054 5.951 10.129 4.274 15.159 5.97 14.559 4.908-.504-.892-5.437-7.247-10.962-14.122-5.526-6.875-10.048-12.838-10.051-13.25-.002-.412 4.654-.75 10.347-.75h10.35l-10.85-10.692c-5.968-5.881-10.851-11.02-10.851-11.421 0-.743 2.125-1.269 9.877-2.443l4.376-.663-12.643-12.671c-13.7-13.73-20.391-17.472-34.11-19.074l-5-.584 3.496-1.879c7.315-3.931 16.071-12.801 19.67-19.925 1.904-3.769 3.321-6.96 3.148-7.092-.173-.131-7.064 1.963-15.314 4.653m108.224-3.959c-4.106 3.094-6.175 15.79-3.657 22.435 5.198 13.719 17.908 7.399 17.927-8.915.014-11.381-7.572-18.568-14.27-13.52m-38.932 103.5c-3.077 9.762-5.894 18.762-6.26 20-.585 1.974-.306 2.25 2.271 2.25 2.628 0 3.07-.474 4.197-4.5l1.26-4.5h14.711l1.133 4.5c1.015 4.03 1.434 4.5 4.015 4.5 3.577 0 3.72 1.35-1.678-15.916-8.317-26.605-7.184-24.084-10.828-24.084h-3.227l-5.594 17.75m34.892-14.488c-8.062 7.603-7.698 26.943.651 34.632 3.881 3.573 11.097 4.002 15.665.932 4.373-2.939 7.963-9.602 5.884-10.919-2.152-1.363-3.884-1.064-3.884.67 0 4.768-8.403 8.883-13.055 6.393-6.56-3.51-7.638-21.291-1.681-27.72 4.376-4.722 11.829-2.317 13.61 4.393.561 2.113 1.457 2.939 3.442 3.173l2.684.317v-7.567c0-7.404-.054-7.566-2.5-7.566-1.833 0-2.5.533-2.5 2 0 1.1-.38 2-.845 2-.465 0-1.66-.9-2.655-2-3.088-3.412-10.532-2.779-14.816 1.262m35.815 11.488c-2.533 8.113-5.257 16.743-6.052 19.178-1.926 5.894-1.886 6.072 1.346 6.072 2.464 0 2.933-.528 3.996-4.5l1.203-4.5h14.748l1.26 4.5c1.132 4.043 1.562 4.5 4.237 4.5 1.962 0 2.819-.426 2.515-1.25-.255-.687-3.071-9.687-6.258-20L366.699 197h-6.594l-4.606 14.75M386 217.097v20.096l9.578-.346c11.681-.423 15.311-3.179 17.392-13.201 3.489-16.809-3.744-26.576-19.72-26.624L386 197v20.097m35-.097v20h25v-5h-20.095l.297-6.25.298-6.25 7.25-.294c6.952-.282 7.25-.394 7.25-2.75 0-2.391-.199-2.456-7.55-2.456h-7.55l.3-5.75.3-5.75 9.75-.286c9.618-.283 9.75-.32 9.75-2.75V197h-25v20m34-.06V237h6v-13.667c0-15.003.273-15.607 2.811-6.204 1.504 5.575 2.018 6.371 4.113 6.371 2.087 0 2.624-.818 4.191-6.373 2.637-9.353 2.885-8.82 2.885 6.206V237h6V196.879l-3.719.311-3.718.31-2.529 8.75c-1.391 4.813-2.791 8.75-3.112 8.75-.321 0-1.677-3.937-3.014-8.75l-2.43-8.75-3.739-.31-3.739-.311v20.061m39-17.44c0 2.111.467 2.5 3 2.5h3v30h-3c-2.533 0-3 .389-3 2.5 0 2.481.067 2.5 9 2.5s9-.019 9-2.5c0-2.111-.467-2.5-3-2.5h-3v-30h3c2.533 0 3-.389 3-2.5 0-2.481-.067-2.5-9-2.5s-9 .019-9 2.5m35.563 13.203c-2.68 8.688-5.457 17.709-6.17 20.047l-1.297 4.25h2.956c2.658 0 3.077-.453 4.159-4.5l1.204-4.5h14.593l1.203 4.5c1.063 3.972 1.532 4.5 3.996 4.5 3.637 0 3.714.516-3.126-21l-5.882-18.5-3.382-.297-3.381-.298-4.873 15.798m-137.896-10.036c-.367.366-.667 7.116-.667 15V232h5.548c6.84 0 9.994-2.766 11.03-9.673 1.402-9.35-1.195-17.47-6.195-19.372-2.89-1.098-8.733-1.272-9.716-.288M290.709 213.62c-2.871 9.307-2.85 9.38 2.791 9.38 5.651 0 5.772-.315 3.309-8.56-2.89-9.675-3.35-9.736-6.1-.82m71.999-6.937c-.572.948-4.708 14.719-4.708 15.675 0 .777 9.441.868 10.211.098.516-.517-3.649-15.227-4.573-16.152-.241-.24-.659-.07-.93.379m172.389 6.222C532.07 222.872 532.107 223 538 223c2.75 0 5-.311 5-.691 0-1.839-4.562-16.309-5.141-16.309-.365 0-1.608 3.107-2.762 6.905" fill-rule="evenodd"/>
</svg>